<?xml version="1.0" encoding="utf-8"?>
<!-- Generator: Adobe Illustrator 26.0.1, SVG Export Plug-In . SVG Version: 6.00 Build 0)  -->
<svg version="1.1" id="kcshot" xmlns="http://www.w3.org/2000/svg" xmlns:xlink="http://www.w3.org/1999/xlink" x="0px" y="0px"
	 viewBox="0 0 512 512" style="enable-background:new 0 0 512 512;" xml:space="preserve">
<style type="text/css">
	.st0{display:none;}
	.st1{fill:#FF0000;}
	.st2{fill:#FF4000;}
	.st3{fill:#FF8000;}
	.st4{fill:#FFC000;}
	.st5{fill:#FFFF00;}
	.st6{fill:#C0FF00;}
	.st7{fill:#80FF00;}
	.st8{fill:#40FF00;}
	.st9{fill:#00FF00;}
	.st10{fill:#00FF40;}
	.st11{fill:#00FF80;}
	.st12{fill:#00FFC0;}
	.st13{fill:#00FFFF;}
	.st14{fill:#00C0FF;}
	.st15{fill:#0080FF;}
	.st16{fill:#0040FF;}
	.st17{fill:#0000FF;}
	.st18{fill:#4000FF;}
	.st19{fill:#8000FF;}
	.st20{fill:#C000FF;}
	.st21{fill:#FF00FF;}
	.st22{fill:#FF00C0;}
	.st23{fill:#FF0080;}
	.st24{fill:#FF0040;}
	.st25{fill:#FFFFFF;}
</style>
<rect x="-30.1" y="-7.9" class="st0" width="560" height="534.2"/>
<g id="Radial">
	<path id="path3153" class="st1" d="M222,53.4l27.9,211.8l27.9-211.8H222z"/>
	<path id="path3168" class="st2" d="M277.8,53.4l-27.9,211.8l81.7-197.3L277.8,53.4z"/>
	<path id="path3170" class="st3" d="M331.6,67.8l-81.7,197.3l130-169.5L331.6,67.8z"/>
	<path id="path3172" class="st4" d="M379.9,95.7l-130,169.5l169.5-130L379.9,95.7z"/>
	<path id="path3174" class="st5" d="M419.3,135.1l-169.5,130l197.3-81.7L419.3,135.1z"/>
	<path id="path3187" class="st6" d="M447.2,183.4l-197.3,81.7l211.8-27.9L447.2,183.4z"/>
	<path id="path3189" class="st7" d="M461.6,237.2l-211.8,27.9L461.6,293V237.2z"/>
	<path id="path3191" class="st8" d="M461.6,293l-211.8-27.9l197.3,81.7L461.6,293z"/>
	<path id="path3193" class="st9" d="M447.2,346.9l-197.3-81.7l169.5,130L447.2,346.9z"/>
	<path id="path3195" class="st10" d="M419.3,395.1l-169.5-130l130,169.5L419.3,395.1z"/>
	<path id="path3197" class="st11" d="M379.9,434.6l-130-169.5l81.7,197.3L379.9,434.6z"/>
	<path id="path3199" class="st12" d="M331.6,462.5l-81.7-197.3l27.9,211.8L331.6,462.5z"/>
	<path id="path3201" class="st13" d="M277.8,476.9l-27.9-211.8L222,476.9H277.8z"/>
	<path id="path3203" class="st14" d="M222,476.9l27.9-211.8l-81.7,197.3L222,476.9z"/>
	<path id="path3205" class="st15" d="M168.1,462.5l81.7-197.3l-130,169.5L168.1,462.5z"/>
	<path id="path3207" class="st16" d="M119.9,434.6l130-169.5l-169.5,130L119.9,434.6z"/>
	<path id="path3209" class="st17" d="M80.4,395.1l169.5-130L52.5,346.9L80.4,395.1z"/>
	<path id="path3211" class="st18" d="M52.5,346.9l197.3-81.7L38.1,293L52.5,346.9z"/>
	<path id="path3213" class="st19" d="M38.1,293l211.8-27.9L38.1,237.2V293z"/>
	<path id="path3215" class="st20" d="M38.1,237.2l211.8,27.9L52.6,183.4L38.1,237.2z"/>
	<path id="path3217" class="st21" d="M52.5,183.4l197.3,81.7l-169.5-130L52.5,183.4z"/>
	<path id="path3219" class="st22" d="M80.4,135.1l169.5,130l-130-169.5L80.4,135.1z"/>
	<path id="path3221" class="st23" d="M119.9,95.7l130,169.5L168.1,67.8L119.9,95.7z"/>
	<path id="path3223" class="st24" d="M168.1,67.8l81.7,197.3L222,53.4L168.1,67.8z"/>
</g>
<g id="Camera" transform="translate(0.000000,984.000000) scale(0.100000,-0.100000)">
	<path class="st25" d="M2152.9,8424c-51.1-9-91.1-41.5-128.9-105.3c-8-13.5-47.3-90.3-87.2-170.2l-72.8-145.5l-233.2-0.6
		c-231.9-0.6-233.2-0.6-254.2-5.4c-65.8-15-113-40.8-159.7-87.5c-46.4-46.4-72.8-95.2-87.2-160.9l-4.9-21.9v-567.3
		c0-538.3,0.2-568.4,3.9-587.7c12.9-67.3,46.8-128.9,96.5-175.1c44.1-40.8,99.5-68.5,159.7-79.7c20.8-3.9,55.9-4.1,1114.2-4.1
		s1093.3,0.2,1114.2,4.1c65.1,12,120.8,41.5,167.6,88.3c46.4,46.4,76.1,102.5,88.5,167c3.7,18.9,3.9,50.5,3.9,587.3v567.3l-4.9,21.9
		c-14.4,65.5-41,114.5-87.2,160.9c-46.6,46.6-93.9,72.4-159.7,87.5c-21.1,4.7-22.3,4.7-254.2,5.4l-233.2,0.6l-72.8,145.5
		c-40,79.9-78,154.7-84.7,165.9c-34.4,59.1-67,89.8-111.5,104.9l-16.8,5.8l-342.7,0.2C2316.9,8425.5,2158.3,8424.8,2152.9,8424z
		 M1460.1,7789.8c18.7-3.4,37.8-13.5,53.3-27.7c43.6-40.8,44.5-107.4,2.1-150c-23.9-23.9-57.8-35.5-89.4-30.5
		c-52.4,8-90,51.4-90,103.8c-0.2,20.4,2.4,31.8,11,48.8c12,23.6,33.5,42.3,59.1,51.1C1426.6,7792.6,1439.5,7793.7,1460.1,7789.8z
		 M2577.3,7786.8c185.9-23.6,347.5-124.4,451.5-280.9c69-103.6,104-221.3,104-348.8c0-77.8-11.8-145.7-37.8-217.7
		c-59.7-164.8-192.3-302.6-355.2-369c-79.3-32.2-153.4-46.6-240.9-46.6c-118.8,0-224.3,28.8-326.2,89.4
		c-57.6,34.2-119.9,87.9-164.4,141.6c-76.3,91.8-125.7,208.7-140.1,331.6c-4.3,36.1-4.1,105.5,0,141.6
		c17,145.5,80.4,276.3,183.7,379.3c108.7,108.3,251.2,172.3,408.3,183.5C2483,7792.4,2551.8,7790.1,2577.3,7786.8z"/>
	<path class="st25" d="M2462.4,7472.9c-34-4.1-74.8-16.8-106.4-32.4c-115-57.8-184.6-182-173.2-308.6
		c13.1-145,115.2-257.9,259.2-286.4c26.9-5.4,87-5.4,113.9,0c100.4,20,182,81.2,226.7,170.4c26,52.2,37.4,111.1,32.2,167.2
		c-12.7,141-108.9,251.4-247.1,283.9c-18.3,4.5-29.7,5.6-60.2,6.2C2486.9,7473.5,2466.4,7473.3,2462.4,7472.9z"/>
</g>
<g id="Spikes">
	<path class="st25" d="M496.4,252.9l-20.5-12.8c-0.2-2.1-0.4-4.1-0.6-6.1l17.6-16.6c0.8-0.8,1.5-1.7,1.9-2.8
		c1.5-3.9-0.5-8.2-4.3-9.6l-22.6-8.6c-0.6-2-1.2-3.9-1.8-5.9l14.1-19.7c0.7-0.9,1.1-2,1.3-3.1c0.7-4.1-2.1-7.9-6.1-8.6l-23.9-4
		c-0.9-1.8-1.9-3.6-2.9-5.4l9.9-22.1c0.5-1,0.7-2.2,0.7-3.3c-0.1-4.1-3.6-7.4-7.7-7.2l-24.2,0.7c-1.3-1.6-2.6-3.2-3.9-4.8l5.4-23.6
		c0.3-1.1,0.3-2.3,0-3.4c-0.9-4-4.9-6.5-8.9-5.6l-23.6,5.4c-1.6-1.3-3.2-2.6-4.8-3.9l0.7-24.2c0-1.1-0.2-2.3-0.7-3.3
		c-1.7-3.8-6.1-5.4-9.9-3.7l-22.1,9.9c-1.8-1-3.6-2-5.4-2.9l-4-23.9c-0.2-1.1-0.6-2.2-1.3-3.1c-2.4-3.4-7-4.1-10.4-1.7l-19.7,14.1
		c-2-0.6-3.9-1.2-5.9-1.8l-8.6-22.6c-0.4-1.1-1-2-1.9-2.8c-3-2.8-7.7-2.7-10.5,0.3l-16.6,17.6c-2-0.2-4.1-0.4-6.1-0.6l-12.8-20.5
		c-0.6-1-1.4-1.8-2.4-2.4c-3.5-2.2-8.1-1.1-10.3,2.4l-12.8,20.5c-2.1,0.2-4.1,0.4-6.1,0.6l-16.6-17.6c-0.8-0.8-1.7-1.5-2.8-1.9
		c-3.9-1.5-8.2,0.5-9.6,4.3l-8.6,22.6c-2,0.6-3.9,1.2-5.9,1.8l-19.7-14.1c-0.9-0.7-2-1.1-3.1-1.3c-4.1-0.7-7.9,2.1-8.6,6.1l-4,23.9
		c-1.8,0.9-3.6,1.9-5.4,2.9l-22.1-9.9c-1-0.5-2.2-0.7-3.3-0.7c-4.1,0.1-7.4,3.6-7.2,7.7l0.7,24.2c-1.6,1.3-3.2,2.6-4.8,3.9
		l-23.6-5.4c-1.1-0.3-2.3-0.3-3.4,0c-4,0.9-6.5,4.9-5.6,8.9l5.4,23.6c-1.3,1.6-2.6,3.2-3.9,4.8L48.6,117c-1.1,0-2.3,0.2-3.3,0.7
		c-3.8,1.7-5.4,6.1-3.7,9.9l9.9,22.1c-1,1.8-2,3.6-2.9,5.4l-23.9,4c-1.1,0.2-2.2,0.6-3.1,1.3c-3.4,2.4-4.1,7-1.7,10.4l14.1,19.7
		c-0.6,2-1.2,3.9-1.8,5.9l-22.6,8.6c-1.1,0.4-2,1-2.8,1.9c-2.8,3-2.7,7.7,0.3,10.5l17.6,16.6c-0.2,2-0.4,4.1-0.6,6.1L3.5,252.9
		c-1,0.6-1.8,1.4-2.4,2.4c-2.2,3.5-1.1,8.1,2.4,10.3L24,278.4c0.2,2.1,0.4,4.1,0.6,6.1L7,301.1c-0.8,0.8-1.5,1.7-1.9,2.8
		c-1.5,3.9,0.5,8.2,4.3,9.6l22.6,8.6c0.6,2,1.2,3.9,1.8,5.9l-14.1,19.7c-0.7,0.9-1.1,2-1.3,3.1c-0.7,4.1,2.1,7.9,6.1,8.6l23.9,4
		c0.9,1.8,1.9,3.6,2.9,5.4l-9.9,22.1c-0.5,1-0.7,2.2-0.7,3.3c0.1,4.1,3.6,7.4,7.7,7.2l24.2-0.7c1.3,1.6,2.6,3.2,3.9,4.8L71.2,429
		c-0.3,1.1-0.3,2.3,0,3.4c0.9,4,4.9,6.5,8.9,5.6l23.6-5.4c1.6,1.3,3.2,2.6,4.8,3.9l-0.7,24.2c0,1.1,0.2,2.3,0.7,3.3
		c1.7,3.8,6.1,5.4,9.9,3.7l22.1-9.9c1.8,1,3.6,2,5.4,2.9l4,23.9c0.2,1.1,0.6,2.2,1.3,3.1c2.4,3.4,7,4.1,10.4,1.7l19.7-14.1
		c2,0.6,3.9,1.2,5.9,1.8l8.6,22.6c0.4,1.1,1,2,1.9,2.8c3,2.8,7.7,2.7,10.5-0.3l16.6-17.6c2,0.2,4.1,0.4,6.1,0.6l12.8,20.5
		c0.6,1,1.4,1.8,2.4,2.4c3.5,2.2,8.1,1.1,10.3-2.4l12.8-20.5c2.1-0.2,4.1-0.4,6.1-0.6l16.6,17.6c0.8,0.8,1.7,1.5,2.8,1.9
		c3.9,1.5,8.2-0.5,9.6-4.3l8.6-22.6c2-0.6,3.9-1.2,5.9-1.8l19.7,14.1c0.9,0.7,2,1.1,3.1,1.3c4.1,0.7,7.9-2.1,8.6-6.1l4-23.9
		c1.8-0.9,3.6-1.9,5.4-2.9l22.1,9.9c1,0.5,2.2,0.7,3.3,0.7c4.1-0.1,7.4-3.6,7.2-7.7l-0.7-24.2c1.6-1.3,3.2-2.6,4.8-3.9l23.6,5.4
		c1.1,0.3,2.3,0.3,3.4,0c4-0.9,6.5-4.9,5.6-8.9l-5.4-23.6c1.3-1.6,2.6-3.2,3.9-4.8l24.2,0.7c1.1,0,2.3-0.2,3.3-0.7
		c3.8-1.7,5.4-6.1,3.7-9.9l-9.9-22.1c1-1.8,2-3.6,2.9-5.4l23.9-4c1.1-0.2,2.2-0.6,3.1-1.3c3.4-2.4,4.1-7,1.7-10.4L466,328
		c0.6-2,1.2-3.9,1.8-5.9l22.6-8.6c1.1-0.4,2-1,2.8-1.9c2.8-3,2.7-7.7-0.3-10.5l-17.6-16.6c0.2-2,0.4-4.1,0.6-6.1l20.5-12.8
		c1-0.6,1.8-1.4,2.4-2.4C501,259.7,499.9,255.1,496.4,252.9z M250,53.4c8.2,0,14.9,6.7,14.9,14.9c0,8.2-6.7,14.9-14.9,14.9
		c-8.2,0-14.9-6.7-14.9-14.9C235,60,241.7,53.4,250,53.4z M53.4,200.2C53.4,200.2,53.4,200.2,53.4,200.2c0-8.2,6.7-14.9,14.9-14.9
		c8.2,0,14.9,6.7,14.9,14.9c0,8.2-6.7,14.9-14.9,14.9C60.1,215.1,53.4,208.5,53.4,200.2z M137.7,428.6c-8.2,0-14.9-6.7-14.9-14.9
		c0,0,0,0,0,0c0-8.2,6.7-14.9,14.9-14.9s14.9,6.7,14.9,14.9C152.6,421.9,146,428.6,137.7,428.6z M362.2,428.6
		c-8.2,0-14.9-6.7-14.9-14.9c0,0,0,0,0,0c0-8.2,6.7-14.9,14.9-14.9s14.9,6.7,14.9,14.9C377.1,421.9,370.4,428.6,362.2,428.6z
		 M390.7,388.3l-39.8-6.3c-7.3-1.2-14.2,3.8-15.4,11.2l-6.3,39.8h0c-50.4,23-108.2,23-158.6,0l-6.3-39.8c-1.2-7.3-8-12.3-15.4-11.2
		l-39.8,6.3c-37.4-40.8-55.3-95.8-49-150.8l35.9-18.3c6.6-3.4,9.2-11.5,5.9-18.1l-18.3-35.9c27.2-48.2,74-82.2,128.3-93.2l28.5,28.5
		c0,0,0,0,0,0c5.2,5.2,13.7,5.2,19,0l28.5-28.5c54.3,11,101.1,45,128.3,93.2l-18.3,35.9c-3.4,6.6-0.7,14.7,5.9,18.1l35.9,18.3
		C446,292.5,428.1,347.5,390.7,388.3z M431.6,215.1c-8.2,0-14.9-6.7-14.9-14.9c0-8.2,6.7-14.9,14.9-14.9c8.2,0,14.9,6.7,14.9,14.9
		C446.5,208.5,439.8,215.1,431.6,215.1z"/>
</g>
</svg>
